<svg xmlns="http://www.w3.org/2000/svg" viewBox="0 0 64 64">
  <rect width="64" height="64" rx="12" fill="#0f1115"/>
  <g>
    <rect x="10" y="10" width="11" height="11" fill="#7aa2f7"/>
    <rect x="21" y="10" width="11" height="11" fill="#e7ecf3"/>
    <rect x="32" y="10" width="11" height="11" fill="#7aa2f7"/>
    <rect x="43" y="10" width="11" height="11" fill="#e7ecf3"/>
    <rect x="10" y="21" width="11" height="11" fill="#e7ecf3"/>
    <rect x="21" y="21" width="11" height="11" fill="#7aa2f7"/>
    <rect x="32" y="21" width="11" height="11" fill="#e7ecf3"/>
    <rect x="43" y="21" width="11" height="11" fill="#7aa2f7"/>
    <rect x="10" y="32" width="11" height="11" fill="#7aa2f7"/>
    <rect x="21" y="32" width="11" height="11" fill="#e7ecf3"/>
    <rect x="32" y="32" width="11" height="11" fill="#7aa2f7"/>
    <rect x="43" y="32" width="11" height="11" fill="#e7ecf3"/>
    <rect x="10" y="43" width="11" height="11" fill="#e7ecf3"/>
    <rect x="21" y="43" width="11" height="11" fill="#7aa2f7"/>
    <rect x="32" y="43" width="11" height="11" fill="#e7ecf3"/>
    <rect x="43" y="43" width="11" height="11" fill="#7aa2f7"/>
  </g>
</svg>